<svg width="48" height="49" viewBox="0 0 48 49" fill="none" xmlns="http://www.w3.org/2000/svg">
<rect y="0.0380859" width="48" height="48" rx="24" fill="#E6EFF6"/>
<path d="M31.1834 21.0799C30.3084 17.2299 26.9501 15.4966 24.0001 15.4966C24.0001 15.4966 24.0001 15.4966 23.9917 15.4966C21.0501 15.4966 17.6834 17.2216 16.8084 21.0716C15.8334 25.3716 18.4667 29.0132 20.8501 31.3049C21.7334 32.1549 22.8667 32.5799 24.0001 32.5799C25.1334 32.5799 26.2667 32.1549 27.1417 31.3049C29.5251 29.0132 32.1584 25.3799 31.1834 21.0799ZM24.0001 25.2549C22.5501 25.2549 21.3751 24.0799 21.3751 22.6299C21.3751 21.1799 22.5501 20.0049 24.0001 20.0049C25.4501 20.0049 26.6251 21.1799 26.6251 22.6299C26.6251 24.0799 25.4501 25.2549 24.0001 25.2549Z" fill="#00AEEF"/>
</svg>
