<svg width="61" height="60" viewBox="0 0 61 60" fill="none" xmlns="http://www.w3.org/2000/svg">
<path d="M42.0469 6.21761C42.0469 6.13989 42.0469 6.06217 42.0469 5.98445C42.0469 2.64249 39.3267 0 36.0624 0C35.9847 0 35.907 0 35.8293 0C35.7515 0 35.6738 0 35.5961 0H25.0261H17.9536V6.52849V10.4145V11.9689H23.9381V5.90673H29.9225H35.907V11.8912H35.9847H41.8914V6.45077C42.0469 6.37305 42.0469 6.29533 42.0469 6.21761Z" fill="#EC2027"/>
<path d="M42.0467 49.5077V47.9533H36.0622V54.0155H30.0778H24.0933V48.0311H24.0156H18.1089V53.4715C18.1089 53.5492 18.1089 53.6269 18.1089 53.7824C18.1089 53.8601 18.1089 53.9378 18.1089 54.0155C18.1089 57.3575 20.8291 60 24.0933 60C24.1711 60 24.2488 60 24.3265 60C24.4042 60 24.4819 60 24.5597 60H34.9742H42.0467V53.4715V49.5077Z" fill="#00AEEF"/>
<path d="M53.5489 17.9534H49.6629H18.0308V23.627V29.9223H24.0152V23.9378H54.0929V29.9223V35.9067H48.1085V35.9845V41.8912H53.5489C53.6266 41.8912 53.7043 41.8912 53.8598 41.8912C53.9375 41.8912 54.0152 41.8912 54.0929 41.8912C57.4349 41.8912 60.0774 39.171 60.0774 35.9067C60.0774 35.829 60.0774 35.7513 60.0774 35.6736C60.0774 35.5959 60.0774 35.5182 60.0774 35.4404V24.9482V17.8757H53.5489V17.9534Z" fill="#00AEEF"/>
<path d="M42.0466 29.9222H36.0622V35.9067H5.98445V29.9222V23.9378H11.9689V23.8601V17.9533H6.5285C6.45077 17.9533 6.37305 17.9533 6.21761 17.9533C6.13989 17.9533 6.06217 17.9533 5.98445 17.9533C2.64249 17.9533 0 20.6735 0 23.9378C0 24.0155 0 24.0932 0 24.171C0 24.2487 0 24.3264 0 24.4041V34.8963V41.9689H6.5285H10.4145H42.0466V36.2953V29.9222Z" fill="#EC2027"/>
</svg>
