<svg width="48" height="49" viewBox="0 0 48 49" fill="none" xmlns="http://www.w3.org/2000/svg">
<rect y="0.0380859" width="48" height="48" rx="24" fill="#E6EFF6"/>
<path d="M25.6667 21.7881V24.2048H27.8333C28 24.2048 28.0833 24.3714 28.0833 24.5381L27.75 26.1214C27.75 26.2048 27.5833 26.2881 27.5 26.2881H25.6667V32.3714H23.1667V26.3714H21.75C21.5833 26.3714 21.5 26.2881 21.5 26.1214V24.5381C21.5 24.3714 21.5833 24.2881 21.75 24.2881H23.1667V21.5381C23.1667 20.1214 24.25 19.0381 25.6667 19.0381H27.9167C28.0833 19.0381 28.1667 19.1214 28.1667 19.2881V21.2881C28.1667 21.4548 28.0833 21.5381 27.9167 21.5381H25.9167C25.75 21.5381 25.6667 21.6214 25.6667 21.7881Z" stroke="#00AEEF" stroke-miterlimit="10" stroke-linecap="round"/>
<path d="M26.4998 32.3713H21.4998C17.3332 32.3713 15.6665 30.7046 15.6665 26.5379V21.5379C15.6665 17.3713 17.3332 15.7046 21.4998 15.7046H26.4998C30.6665 15.7046 32.3332 17.3713 32.3332 21.5379V26.5379C32.3332 30.7046 30.6665 32.3713 26.4998 32.3713Z" stroke="#00AEEF" stroke-linecap="round" stroke-linejoin="round"/>
</svg>
