<svg width="60" height="61" viewBox="0 0 60 61" fill="none" xmlns="http://www.w3.org/2000/svg">
<path d="M40.625 56.2881C43.0412 56.2881 45 54.3293 45 51.9131C45 49.4968 43.0412 47.5381 40.625 47.5381C38.2088 47.5381 36.25 49.4968 36.25 51.9131C36.25 54.3293 38.2088 56.2881 40.625 56.2881Z" fill="white"/>
<path d="M20.625 56.2881C23.0412 56.2881 25 54.3293 25 51.9131C25 49.4968 23.0412 47.5381 20.625 47.5381C18.2088 47.5381 16.25 49.4968 16.25 51.9131C16.25 54.3293 18.2088 56.2881 20.625 56.2881Z" fill="white"/>
<path d="M12.1 9.88809L11.6 16.0131C11.5 17.1881 12.425 18.1631 13.6 18.1631H51.875C52.925 18.1631 53.8 17.3631 53.875 16.3131C54.2 11.8881 50.825 8.28809 46.4 8.28809H15.675C15.425 7.18809 14.925 6.13809 14.15 5.26309C12.9 3.93809 11.15 3.16309 9.35 3.16309H5C3.975 3.16309 3.125 4.01309 3.125 5.03809C3.125 6.06309 3.975 6.91309 5 6.91309H9.35C10.125 6.91309 10.85 7.23809 11.375 7.78809C11.9 8.36309 12.15 9.11309 12.1 9.88809Z" fill="white"/>
<path d="M51.2751 21.9131H12.9251C11.8751 21.9131 11.0251 22.7131 10.9251 23.7381L10.0251 34.6131C9.67513 38.8881 13.0251 42.5381 17.3001 42.5381H45.1001C48.8501 42.5381 52.1501 39.4631 52.4251 35.7131L53.2501 24.0381C53.3501 22.8881 52.4501 21.9131 51.2751 21.9131Z" fill="white"/>
</svg>
