<svg width="60" height="61" viewBox="0 0 60 61" fill="none" xmlns="http://www.w3.org/2000/svg">
<path d="M53.75 38.7881C54.45 38.7881 55 39.3381 55 40.0381V42.5381C55 46.6881 51.65 50.0381 47.5 50.0381C47.5 45.9131 44.125 42.5381 40 42.5381C35.875 42.5381 32.5 45.9131 32.5 50.0381H27.5C27.5 45.9131 24.125 42.5381 20 42.5381C15.875 42.5381 12.5 45.9131 12.5 50.0381C8.35 50.0381 5 46.6881 5 42.5381V37.5381C5 36.1631 6.125 35.0381 7.5 35.0381H31.25C34.7 35.0381 37.5 32.2381 37.5 28.7881V15.0381C37.5 13.6631 38.625 12.5381 40 12.5381H42.1C43.9 12.5381 45.55 13.5131 46.45 15.0631L48.05 17.8631C48.275 18.2631 47.975 18.7881 47.5 18.7881C44.05 18.7881 41.25 21.5881 41.25 25.0381V32.5381C41.25 35.9881 44.05 38.7881 47.5 38.7881H53.75Z" fill="white"/>
<path d="M20 55.0381C22.7614 55.0381 25 52.7995 25 50.0381C25 47.2767 22.7614 45.0381 20 45.0381C17.2386 45.0381 15 47.2767 15 50.0381C15 52.7995 17.2386 55.0381 20 55.0381Z" fill="white"/>
<path d="M40 55.0381C42.7614 55.0381 45 52.7995 45 50.0381C45 47.2767 42.7614 45.0381 40 45.0381C37.2386 45.0381 35 47.2767 35 50.0381C35 52.7995 37.2386 55.0381 40 55.0381Z" fill="white"/>
<path d="M55 31.3631V35.0381H47.5C46.125 35.0381 45 33.9131 45 32.5381V25.0381C45 23.6631 46.125 22.5381 47.5 22.5381H50.725L54.35 28.8881C54.775 29.6381 55 30.4881 55 31.3631Z" fill="white"/>
<path d="M32.7 5.03809H14.225C9.75 5.03809 6 8.23809 5.175 12.4881H16.1C17.05 12.4881 17.8 13.2631 17.8 14.2131C17.8 15.1631 17.05 15.9131 16.1 15.9131H5V19.3631H11.5C12.45 19.3631 13.225 20.1381 13.225 21.0881C13.225 22.0381 12.45 22.7881 11.5 22.7881H5V26.2381H6.925C7.875 26.2381 8.65 27.0131 8.65 27.9631C8.65 28.9131 7.875 29.6631 6.925 29.6631H5V30.2381C5 31.6131 6.125 32.7381 7.5 32.7381H30.375C32.925 32.7381 35 30.6631 35 28.1131V7.33809C35 6.06309 33.975 5.03809 32.7 5.03809Z" fill="white"/>
<path d="M5.175 12.4883H4.8H2.35C1.4 12.4883 0.625 13.2633 0.625 14.2133C0.625 15.1633 1.4 15.9133 2.35 15.9133H4.625H5V14.2633C5 13.6633 5.075 13.0633 5.175 12.4883Z" fill="white"/>
<path d="M4.625 19.3633H2.35C1.4 19.3633 0.625 20.1383 0.625 21.0883C0.625 22.0383 1.4 22.7883 2.35 22.7883H4.625H5V19.3633H4.625Z" fill="white"/>
<path d="M4.625 26.2383H2.35C1.4 26.2383 0.625 27.0133 0.625 27.9633C0.625 28.9133 1.4 29.6633 2.35 29.6633H4.625H5V26.2383H4.625Z" fill="white"/>
</svg>
