<svg width="60" height="61" viewBox="0 0 60 61" fill="none" xmlns="http://www.w3.org/2000/svg">
<path d="M20.9751 46.2629V20.8629C20.9751 19.8629 21.2751 18.8879 21.8251 18.0629L28.6501 7.9129C29.7251 6.2879 32.4001 5.1379 34.6751 5.9879C37.1251 6.8129 38.7501 9.5629 38.2251 12.0129L36.9251 20.1879C36.8251 20.9379 37.0251 21.6129 37.4501 22.1379C37.8751 22.6129 38.5001 22.9129 39.1751 22.9129H49.4501C51.4251 22.9129 53.1251 23.7129 54.1251 25.1129C55.0751 26.4629 55.2501 28.2129 54.6251 29.9879L48.4751 48.7129C47.7001 51.8129 44.3251 54.3379 40.9751 54.3379H31.2251C29.5501 54.3379 27.2001 53.7629 26.1251 52.6879L22.9251 50.2129C21.7001 49.2879 20.9751 47.8129 20.9751 46.2629Z" fill="white"/>
<path d="M13.025 15.9878H10.45C6.575 15.9878 5 17.4878 5 21.1878V46.3378C5 50.0378 6.575 51.5378 10.45 51.5378H13.025C16.9 51.5378 18.475 50.0378 18.475 46.3378V21.1878C18.475 17.4878 16.9 15.9878 13.025 15.9878Z" fill="white"/>
</svg>
