<svg width="60" height="61" viewBox="0 0 60 61" fill="none" xmlns="http://www.w3.org/2000/svg">
<path d="M46.35 10.3382L32.6 5.18818C31.175 4.66318 28.85 4.66318 27.425 5.18818L13.675 10.3382C11.025 11.3382 8.875 14.4382 8.875 17.2632V37.5132C8.875 39.5382 10.2 42.2132 11.825 43.4132L25.575 53.6882C28 55.5132 31.975 55.5132 34.4 53.6882L48.15 43.4132C49.775 42.1882 51.1 39.5382 51.1 37.5132V17.2632C51.125 14.4382 48.975 11.3382 46.35 10.3382ZM38.7 24.3382L27.95 35.0882C27.575 35.4632 27.1 35.6382 26.625 35.6382C26.15 35.6382 25.675 35.4632 25.3 35.0882L21.3 31.0382C20.575 30.3132 20.575 29.1132 21.3 28.3882C22.025 27.6632 23.225 27.6632 23.95 28.3882L26.65 31.0882L36.075 21.6632C36.8 20.9382 38 20.9382 38.725 21.6632C39.45 22.3882 39.45 23.6132 38.7 24.3382Z" fill="white"/>
</svg>
