<svg width="245" height="60" viewBox="0 0 245 60" fill="none" xmlns="http://www.w3.org/2000/svg">
<path d="M104.534 55.4922L98.6271 46.7098V55.4922H97.6167V45.4662H98.9379L104.534 53.7046V45.4662H105.544V55.4144H104.534V55.4922Z" fill="#6D6D6D"/>
<path d="M112.85 55.4922V51.4507C112.85 51.0621 112.772 50.6735 112.694 50.3626C112.539 49.974 112.383 49.6631 112.15 49.43C111.684 49.0414 111.14 48.8082 110.518 48.8082C109.896 48.8082 109.352 49.0414 108.886 49.43C108.653 49.6631 108.497 49.974 108.342 50.3626C108.264 50.6735 108.187 51.0621 108.187 51.373V55.4922H107.254V45.4662H108.187V49.0414C108.653 48.2642 109.43 47.8756 110.44 47.8756C111.451 47.8756 112.306 48.1865 112.85 48.8859C113.394 49.5077 113.705 50.3626 113.705 51.373V55.4144H112.85V55.4922Z" fill="#6D6D6D"/>
<path d="M122.176 55.4922V54.171C121.555 55.1813 120.544 55.6476 119.301 55.6476C118.213 55.6476 117.28 55.259 116.503 54.5596C115.726 53.7824 115.337 52.9274 115.337 51.7616C115.337 50.6736 115.726 49.7409 116.503 49.0414C117.28 48.342 118.213 47.9533 119.301 47.9533C120.622 47.9533 121.555 48.4197 122.176 49.43V48.1088H123.109V55.4922H122.176ZM121.399 49.6632C120.855 49.0414 120.156 48.7306 119.301 48.7306C118.446 48.7306 117.669 49.0414 117.124 49.5855C116.58 50.1295 116.27 50.9067 116.27 51.7616C116.27 52.6166 116.58 53.316 117.124 53.9378C117.669 54.4818 118.446 54.7927 119.301 54.7927C120.156 54.7927 120.855 54.4818 121.399 53.9378C121.943 53.316 122.254 52.6166 122.254 51.8394C122.254 51.0622 121.943 50.285 121.399 49.6632ZM120.389 47.0984L117.746 45.6217L118.135 44.8445L120.855 46.3212L120.389 47.0984Z" fill="#6D6D6D"/>
<path d="M131.036 46.3989V55.4922H130.026V46.3989H127.772V45.4662H133.368V46.3989H131.036Z" fill="#6D6D6D"/>
<path d="M139.741 55.4922V51.4507C139.741 51.0621 139.664 50.6735 139.586 50.3626C139.43 49.974 139.275 49.6631 139.042 49.43C138.576 49.0414 138.032 48.8082 137.41 48.8082C136.788 48.8082 136.244 49.0414 135.778 49.43C135.544 49.6631 135.389 49.974 135.234 50.3626C135.156 50.6735 135.078 51.0621 135.078 51.373V55.4922H134.146V45.4662H135.078V49.0414C135.544 48.2642 136.322 47.8756 137.332 47.8756C138.342 47.8756 139.197 48.1865 139.741 48.8859C140.285 49.5077 140.596 50.3626 140.596 51.373V55.4144H139.741V55.4922Z" fill="#6D6D6D"/>
<path d="M147.979 55.4922V54.3264C147.746 54.7927 147.435 55.1036 146.969 55.3367C146.58 55.5699 146.114 55.6476 145.57 55.6476C144.482 55.6476 143.627 55.259 143.005 54.5595C142.772 54.2487 142.617 53.8601 142.461 53.4715C142.383 53.0829 142.306 52.6943 142.306 52.2279V48.1088H143.238V52.1502C143.238 53.0051 143.394 53.6269 143.705 54.0155C144.093 54.4818 144.637 54.7927 145.492 54.7927C146.114 54.7927 146.658 54.5595 147.047 54.1709C147.357 53.8601 147.591 53.5492 147.668 53.1606C147.746 52.8497 147.824 52.4611 147.824 51.9948V48.1088H148.756V55.4922H147.979Z" fill="#6D6D6D"/>
<path d="M156.917 54.4819C156.14 55.2591 155.285 55.6477 154.197 55.6477C153.187 55.6477 152.254 55.2591 151.477 54.4819C150.7 53.7047 150.311 52.8497 150.311 51.7617C150.311 50.6736 150.7 49.7409 151.399 49.0415C152.176 48.2643 153.031 47.8757 154.119 47.8757C155.13 47.8757 156.062 48.2643 156.84 49.0415C157.617 49.8187 158.005 50.7513 158.005 51.7617C158.083 52.8497 157.694 53.7824 156.917 54.4819ZM156.295 49.6632C155.751 49.0415 155.052 48.8083 154.275 48.8083C153.42 48.8083 152.72 49.1192 152.176 49.7409C151.632 50.3627 151.321 51.0622 151.321 51.9171C151.321 52.6943 151.632 53.3938 152.176 54.0156C152.72 54.6373 153.42 54.8705 154.275 54.8705C155.13 54.8705 155.829 54.5596 156.373 53.9378C156.917 53.3161 157.15 52.6166 157.15 51.7617C157.15 50.9067 156.84 50.2073 156.295 49.6632ZM155.441 46.8653L154.275 45.8549L153.109 46.8653H151.865L153.808 45.1555H154.663L156.606 46.8653H155.441ZM156.062 45.9327L155.596 45.1555L158.239 43.6788L158.705 44.456L156.062 45.9327Z" fill="#6D6D6D"/>
<path d="M166.787 53.3161C166.01 54.8705 164.767 55.6477 163.135 55.6477C162.047 55.6477 161.114 55.2591 160.337 54.5597C159.559 53.7825 159.171 52.9275 159.171 51.8394C159.171 50.7514 159.559 49.8187 160.337 49.1192C161.114 48.342 162.047 48.0312 163.135 48.0312C163.912 48.0312 164.689 48.2643 165.311 48.6529C166.01 49.1192 166.477 49.6633 166.787 50.4405H165.777C165.233 49.4301 164.378 48.8861 163.212 48.8861C162.357 48.8861 161.658 49.197 161.036 49.741C160.414 50.285 160.104 51.0622 160.104 51.9172C160.104 52.7721 160.414 53.4716 160.958 54.0933C161.58 54.7151 162.28 54.9483 163.135 54.9483C164.378 54.9483 165.233 54.4819 165.699 53.4716H166.787V53.3161Z" fill="#6D6D6D"/>
<path d="M181.399 55.4922V46.6321L177.669 55.4922H176.814L173.083 46.6321V55.4922H172.073V45.4662H173.627L177.28 53.9377L180.933 45.4662H182.487V55.4144H181.399V55.4922Z" fill="#6D6D6D"/>
<path d="M191.658 52.1502H184.974C184.974 52.8497 185.285 53.4715 185.907 54.0155C186.451 54.5595 187.15 54.7927 187.85 54.7927C188.394 54.7927 188.938 54.6373 189.404 54.3264C189.871 54.0155 190.259 53.5492 190.415 53.0051H191.425C191.114 53.7823 190.648 54.4041 190.026 54.8704C189.327 55.3367 188.627 55.5699 187.772 55.5699C186.684 55.5699 185.829 55.1813 185.052 54.4041C184.275 53.6269 183.964 52.772 183.964 51.6839C183.964 50.5958 184.352 49.7409 185.052 48.9637C185.829 48.1865 186.684 47.7979 187.772 47.7979C188.86 47.7979 189.793 48.1865 190.492 48.9637C191.27 49.7409 191.58 50.6735 191.58 51.7616L191.658 52.1502ZM190.648 51.2953C190.492 50.5958 190.181 49.974 189.637 49.5077C189.093 49.0414 188.472 48.8082 187.772 48.8082C187.073 48.8082 186.373 49.0414 185.907 49.5077C185.363 49.974 185.052 50.5958 184.897 51.2953H190.648ZM187.306 57.9792V56.2694H188.316V57.9792H187.306Z" fill="#6D6D6D"/>
<path d="M205.104 55.6477L202.85 53.3938C202.461 54.0933 202.073 54.6373 201.684 54.9482C201.14 55.4145 200.518 55.57 199.819 55.57C198.964 55.57 198.264 55.2591 197.643 54.715C197.021 54.0933 196.71 53.3938 196.71 52.5389C196.71 51.8394 196.943 51.2176 197.409 50.6736C197.798 50.2073 198.342 49.8964 199.042 49.5078C198.653 49.1192 198.42 48.8083 198.264 48.5752C198.031 48.1866 197.953 47.798 197.953 47.4093C197.953 46.7876 198.187 46.2435 198.653 45.8549C199.119 45.4663 199.663 45.2332 200.285 45.2332C200.907 45.2332 201.451 45.4663 201.917 45.9327C202.384 46.399 202.617 46.943 202.617 47.5648C202.617 48.1088 202.384 48.5752 201.995 48.9638C201.606 49.3524 201.218 49.5855 200.674 49.8187L202.539 51.684L204.016 48.886H205.104L203.238 52.3834L205.726 54.8705L205.104 55.6477ZM199.741 50.3627C199.197 50.5182 198.731 50.829 198.342 51.2176C197.953 51.684 197.72 52.1503 197.72 52.6943C197.72 53.2384 197.953 53.7047 198.342 54.171C198.731 54.5596 199.275 54.7928 199.819 54.7928C200.363 54.7928 200.829 54.5596 201.295 54.171C201.451 54.0156 201.606 53.7824 201.762 53.5492C201.917 53.3938 201.995 53.0829 202.15 52.8498L199.741 50.3627ZM201.218 46.6321C200.985 46.399 200.596 46.2435 200.207 46.2435C199.819 46.2435 199.508 46.3213 199.275 46.5544C198.964 46.7876 198.886 47.0985 198.886 47.4871C198.886 47.798 199.042 48.1088 199.275 48.4197C199.352 48.5752 199.508 48.6529 199.663 48.8083C199.741 48.886 199.896 49.0415 200.052 49.1192C200.285 49.0415 200.518 48.9638 200.674 48.886C200.907 48.8083 201.062 48.6529 201.218 48.5752C201.606 48.2643 201.762 47.9534 201.762 47.4871C201.684 47.1762 201.529 46.8653 201.218 46.6321Z" fill="#6D6D6D"/>
<path d="M216.062 54.9481C215.674 55.1813 215.285 55.3367 214.896 55.4144C214.585 55.4922 214.197 55.4922 213.653 55.4922H210.933V45.4662H213.42C214.119 45.4662 214.741 45.544 215.207 45.7771C215.829 46.0103 216.218 46.4766 216.451 47.0984C216.606 47.4093 216.684 47.7979 216.684 48.1087C216.684 48.5751 216.606 48.8859 216.373 49.2745C216.218 49.5854 215.907 49.8186 215.596 50.1295C216.684 50.5958 217.228 51.373 217.228 52.6165C217.15 53.7046 216.839 54.4041 216.062 54.9481ZM215.207 47.0207C214.974 46.7875 214.663 46.6321 214.275 46.4766C214.119 46.3989 213.964 46.3989 213.731 46.3989C213.575 46.3989 213.42 46.3989 213.186 46.3989H211.865V49.8186H213.575C213.731 49.8186 213.886 49.8186 214.041 49.8186C214.352 49.7409 214.663 49.6631 214.896 49.5854C215.44 49.2745 215.674 48.8082 215.674 48.1865C215.596 47.7201 215.518 47.3315 215.207 47.0207ZM215.052 50.9067C214.819 50.8289 214.43 50.7512 214.119 50.6735C213.964 50.6735 213.808 50.6735 213.653 50.6735H211.943V54.5595H213.808H214.275C214.663 54.5595 214.974 54.4818 215.207 54.3263C215.907 54.0155 216.295 53.4714 216.295 52.6165C216.218 51.8393 215.829 51.2953 215.052 50.9067Z" fill="#6D6D6D"/>
<path d="M225.777 52.1502H219.093C219.093 52.8497 219.404 53.4715 220.026 54.0155C220.57 54.5596 221.27 54.7927 221.969 54.7927C222.513 54.7927 223.057 54.6373 223.523 54.3264C223.99 54.0155 224.378 53.5492 224.534 53.0052H225.544C225.233 53.7824 224.767 54.4041 224.145 54.8704C223.446 55.3368 222.746 55.5699 221.891 55.5699C220.803 55.5699 219.948 55.1813 219.171 54.4041C218.394 53.6269 218.083 52.772 218.083 51.6839C218.083 50.5958 218.472 49.7409 219.171 48.9637C219.948 48.1865 220.803 47.7979 221.891 47.7979C222.979 47.7979 223.912 48.1865 224.611 48.9637C225.389 49.7409 225.7 50.6736 225.7 51.7616L225.777 52.1502ZM224.845 51.2953C224.689 50.5958 224.378 49.9741 223.834 49.5078C223.29 49.0414 222.668 48.8083 221.969 48.8083C221.27 48.8083 220.57 49.0414 220.104 49.5078C219.56 49.9741 219.249 50.5958 219.093 51.2953H224.845ZM220.959 47.0984L220.492 46.3212L223.135 44.8445L223.601 45.6217L220.959 47.0984Z" fill="#6D6D6D"/>
<path d="M109.896 40.803H101.736L99.0156 33.6528H86.8912L84.2488 40.803H76.3213L89.3006 9.71497H96.684L109.896 40.803ZM96.4508 27.202L92.7203 17.7201L89.1451 27.202H96.4508Z" fill="#00AEEF"/>
<path d="M131.036 40.803H124.197V26.9688C124.197 25.4921 123.964 24.5595 123.575 24.1709C123.109 23.7823 122.254 23.6269 120.933 23.6269H116.813V40.803H109.974V17.7201H121.321C124.819 17.7201 127.228 18.4196 128.782 19.7408C130.259 21.0621 131.036 23.316 131.036 26.2693V40.803Z" fill="#00AEEF"/>
<path d="M173.394 19.974C173.394 21.8393 173.083 23.4714 172.539 24.7927C171.839 26.2694 170.984 27.3575 169.819 28.2124C168.731 28.9896 167.487 29.5336 166.166 29.8445C165.389 29.9999 164.534 30.0777 163.679 30.1554C162.746 30.2331 161.58 30.3108 160.337 30.3108H153.264V40.803H145.958V9.71497H160.026C162.357 9.71497 164.223 9.87041 165.544 10.1036C166.321 10.259 167.021 10.4144 167.565 10.5699C168.109 10.803 168.575 11.0362 169.041 11.2694C170.44 12.202 171.528 13.4455 172.306 14.9222C173.005 16.3212 173.394 18.031 173.394 19.974ZM165.466 19.974C165.466 18.5751 165.078 17.5647 164.3 17.0207C163.523 16.3989 162.047 16.088 160.026 16.088H153.342V23.86H160.414C161.269 23.86 162.047 23.7823 162.746 23.6269C163.368 23.4714 163.912 23.2383 164.3 22.8497C165 22.3056 165.466 21.2953 165.466 19.974Z" fill="#00AEEF"/>
<path d="M197.099 40.8032H190.259V26.8912C190.259 25.4923 190.026 24.6374 189.637 24.171C189.327 23.9379 189.016 23.7824 188.627 23.627C188.239 23.5493 187.694 23.4716 186.995 23.4716L182.954 23.5493V40.7254H176.192V9.63736H182.954V17.6425H187.539C190.959 17.6425 193.446 18.342 194.922 19.6633C196.399 20.9845 197.176 23.1607 197.176 26.1918L197.099 40.8032Z" fill="#00AEEF"/>
<path d="M221.813 40.7254H210.466C207.124 40.7254 204.715 40.026 203.238 38.7047C201.684 37.3057 200.907 35.1296 200.907 32.1762V17.7203H207.668V31.7099C207.668 33.0311 207.902 33.8861 208.29 34.2747C208.679 34.6633 209.534 34.8964 210.933 34.8964H215.052V17.7203H221.891V40.7254H221.813ZM222.358 9.63736L213.964 16.4767H209.845L214.585 9.63736H222.358Z" fill="#00AEEF"/>
<path d="M244.974 40.7254H236.658C235.648 40.7254 234.715 40.6477 233.86 40.57C233.006 40.4922 232.306 40.3368 231.607 40.1036C230.363 39.6373 229.119 38.9378 228.031 37.9275C227.565 37.4611 227.099 36.8394 226.71 36.2176C226.322 35.5959 225.933 34.8187 225.544 34.1192C225.233 33.4197 225.078 32.6425 224.923 31.8653C224.767 31.0881 224.689 30.2332 224.689 29.3783C224.689 27.6684 225 26.0363 225.544 24.5596C226.088 23.0829 226.943 21.7617 228.031 20.5181C229.042 19.5855 230.208 18.9637 231.607 18.4974C232.928 18.0311 234.638 17.7979 236.658 17.7979H244.974V23.5492H238.29C236.892 23.5492 235.803 23.627 234.949 23.7824C234.094 24.0156 233.472 24.3264 233.005 24.7928C232.073 25.6477 231.607 27.1244 231.607 29.3005C231.607 30.4663 231.84 31.4767 232.228 32.3316C232.617 33.1865 233.161 33.8083 233.938 34.3523L235.259 34.8187C235.648 34.8964 236.037 34.8964 236.425 34.9741C236.814 34.9741 237.436 35.0518 238.29 35.0518H244.974V40.7254Z" fill="#00AEEF"/>
<path d="M42.0469 6.21761C42.0469 6.13989 42.0469 6.06217 42.0469 5.98445C42.0469 2.64249 39.3267 0 36.0624 0C35.9847 0 35.907 0 35.8293 0C35.7515 0 35.6738 0 35.5961 0H25.0261H17.9536V6.52849V10.4145V11.9689H23.9381V5.90673H29.9225H35.907V11.8912H35.9847H41.8914V6.45077C42.0469 6.37305 42.0469 6.29533 42.0469 6.21761Z" fill="#EC2027"/>
<path d="M42.0467 49.5077V47.9533H36.0622V54.0155H30.0778H24.0933V48.0311H24.0156H18.1089V53.4715C18.1089 53.5492 18.1089 53.6269 18.1089 53.7824C18.1089 53.8601 18.1089 53.9378 18.1089 54.0155C18.1089 57.3575 20.8291 60 24.0933 60C24.1711 60 24.2488 60 24.3265 60C24.4042 60 24.4819 60 24.5597 60H34.9742H42.0467V53.4715V49.5077Z" fill="#00AEEF"/>
<path d="M53.5489 17.9534H49.6629H18.0308V23.627V29.9223H24.0152V23.9378H54.0929V29.9223V35.9068H48.1085V35.9845V41.8912H53.5489C53.6266 41.8912 53.7043 41.8912 53.8598 41.8912C53.9375 41.8912 54.0152 41.8912 54.0929 41.8912C57.4349 41.8912 60.0774 39.171 60.0774 35.9068C60.0774 35.829 60.0774 35.7513 60.0774 35.6736C60.0774 35.5959 60.0774 35.5182 60.0774 35.4404V24.9482V17.8757H53.5489V17.9534Z" fill="#00AEEF"/>
<path d="M42.0466 29.9222H36.0622V35.9067H5.98445V29.9222V23.9378H11.9689V23.8601V17.9533H6.5285C6.45077 17.9533 6.37306 17.9533 6.21761 17.9533C6.13989 17.9533 6.06217 17.9533 5.98445 17.9533C2.64249 17.9533 0 20.6735 0 23.9378C0 24.0155 0 24.0932 0 24.171C0 24.2487 0 24.3264 0 24.4041V34.8963V41.9689H6.5285H10.4145H42.0466V36.2953V29.9222Z" fill="#EC2027"/>
</svg>
