<svg width="48" height="49" viewBox="0 0 48 49" fill="none" xmlns="http://www.w3.org/2000/svg">
<rect y="0.0380859" width="48" height="48" rx="24" fill="#E6EFF6"/>
<path d="M28.1665 16.9546H19.8332C17.3332 16.9546 15.6665 18.2046 15.6665 21.1213V26.9546C15.6665 29.8713 17.3332 31.1213 19.8332 31.1213H28.1665C30.6665 31.1213 32.3332 29.8713 32.3332 26.9546V21.1213C32.3332 18.2046 30.6665 16.9546 28.1665 16.9546ZM28.5582 22.0296L25.9498 24.1129C25.3998 24.5546 24.6998 24.7713 23.9998 24.7713C23.2998 24.7713 22.5915 24.5546 22.0498 24.1129L19.4415 22.0296C19.1748 21.8129 19.1332 21.4129 19.3415 21.1463C19.5582 20.8796 19.9498 20.8296 20.2165 21.0463L22.8248 23.1296C23.4582 23.6379 24.5332 23.6379 25.1665 23.1296L27.7748 21.0463C28.0415 20.8296 28.4415 20.8713 28.6498 21.1463C28.8665 21.4129 28.8248 21.8129 28.5582 22.0296Z" fill="#00AEEF"/>
</svg>
