<svg width="48" height="49" viewBox="0 0 48 49" fill="none" xmlns="http://www.w3.org/2000/svg">
<rect y="0.0380859" width="48" height="48" rx="24" fill="#E6EFF6"/>
<path d="M28.6832 22.9967C28.3248 22.9967 28.0415 22.7051 28.0415 22.3551C28.0415 22.0467 27.7332 21.4051 27.2165 20.8467C26.7082 20.3051 26.1498 19.9884 25.6832 19.9884C25.3248 19.9884 25.0415 19.6967 25.0415 19.3467C25.0415 18.9967 25.3332 18.7051 25.6832 18.7051C26.5165 18.7051 27.3915 19.1551 28.1582 19.9634C28.8748 20.7217 29.3332 21.6634 29.3332 22.3467C29.3332 22.7051 29.0415 22.9967 28.6832 22.9967Z" fill="#00AEEF"/>
<path d="M31.6915 22.9963C31.3331 22.9963 31.0498 22.7046 31.0498 22.3546C31.0498 19.3963 28.6415 16.9963 25.6915 16.9963C25.3331 16.9963 25.0498 16.7046 25.0498 16.3546C25.0498 16.0046 25.3331 15.7046 25.6831 15.7046C29.3498 15.7046 32.3331 18.6879 32.3331 22.3546C32.3331 22.7046 32.0415 22.9963 31.6915 22.9963Z" fill="#00AEEF"/>
<path d="M23.2082 26.4963L21.6665 28.0379C21.3415 28.3629 20.8248 28.3629 20.4915 28.0463C20.3998 27.9546 20.3082 27.8713 20.2165 27.7796C19.3582 26.9129 18.5832 26.0046 17.8915 25.0546C17.2082 24.1046 16.6582 23.1546 16.2582 22.2129C15.8665 21.2629 15.6665 20.3546 15.6665 19.4879C15.6665 18.9213 15.7665 18.3796 15.9665 17.8796C16.1665 17.3713 16.4832 16.9046 16.9248 16.4879C17.4582 15.9629 18.0415 15.7046 18.6582 15.7046C18.8915 15.7046 19.1248 15.7546 19.3332 15.8546C19.5498 15.9546 19.7415 16.1046 19.8915 16.3213L21.8248 19.0463C21.9748 19.2546 22.0832 19.4463 22.1582 19.6296C22.2332 19.8046 22.2748 19.9796 22.2748 20.1379C22.2748 20.3379 22.2165 20.5379 22.0998 20.7296C21.9915 20.9213 21.8332 21.1213 21.6332 21.3213L20.9998 21.9796C20.9082 22.0713 20.8665 22.1796 20.8665 22.3129C20.8665 22.3796 20.8748 22.4379 20.8915 22.5046C20.9165 22.5713 20.9415 22.6213 20.9582 22.6713C21.1082 22.9463 21.3665 23.3046 21.7332 23.7379C22.1082 24.1713 22.5082 24.6129 22.9415 25.0546C23.0248 25.1379 23.1165 25.2213 23.1998 25.3046C23.5332 25.6296 23.5415 26.1629 23.2082 26.4963Z" fill="#00AEEF"/>
<path d="M32.3083 29.3133C32.3083 29.5466 32.2667 29.7883 32.1833 30.0216C32.1583 30.0883 32.1333 30.1549 32.1 30.2216C31.9583 30.5216 31.775 30.8049 31.5333 31.0716C31.125 31.5216 30.675 31.8466 30.1667 32.0549C30.1583 32.0549 30.15 32.0633 30.1417 32.0633C29.65 32.2633 29.1167 32.3716 28.5417 32.3716C27.6917 32.3716 26.7833 32.1716 25.825 31.7633C24.8667 31.3549 23.9083 30.8049 22.9583 30.1133C22.6333 29.8716 22.3083 29.6299 22 29.3716L24.725 26.6466C24.9583 26.8216 25.1667 26.9549 25.3417 27.0466C25.3833 27.0633 25.4333 27.0883 25.4917 27.1133C25.5583 27.1383 25.625 27.1466 25.7 27.1466C25.8417 27.1466 25.95 27.0966 26.0417 27.0049L26.675 26.3799C26.8833 26.1716 27.0833 26.0133 27.275 25.9133C27.4667 25.7966 27.6583 25.7383 27.8667 25.7383C28.025 25.7383 28.1917 25.7716 28.375 25.8466C28.5583 25.9216 28.75 26.0299 28.9583 26.1716L31.7167 28.1299C31.9333 28.2799 32.0833 28.4549 32.175 28.6633C32.2583 28.8716 32.3083 29.0799 32.3083 29.3133Z" fill="#00AEEF"/>
</svg>
