<svg width="48" height="49" viewBox="0 0 48 49" fill="none" xmlns="http://www.w3.org/2000/svg">
<rect y="0.0380859" width="48" height="48" rx="24" fill="#E6EFF6"/>
<path d="M28.1665 30.7049H19.8332C17.3332 30.7049 15.6665 29.0382 15.6665 26.5382V21.5382C15.6665 19.0382 17.3332 17.3716 19.8332 17.3716H28.1665C30.6665 17.3716 32.3332 19.0382 32.3332 21.5382V26.5382C32.3332 29.0382 30.6665 30.7049 28.1665 30.7049Z" stroke="#00AEEF" stroke-miterlimit="10" stroke-linecap="round" stroke-linejoin="round"/>
<path d="M23.5 21.9548L25.5833 23.2048C26.3333 23.7048 26.3333 24.4548 25.5833 24.9548L23.5 26.2048C22.6667 26.7048 22 26.2882 22 25.3715V22.8715C22 21.7882 22.6667 21.4548 23.5 21.9548Z" stroke="#00AEEF" stroke-miterlimit="10" stroke-linecap="round" stroke-linejoin="round"/>
</svg>
